Coordinates
version=1
nRows=11
nColumns=40
inDegrees=yes

Units are S.I. units (second, meters, Newtons, ...)
Angles are in degrees.

endheader
time	pelvis_tilt	pelvis_list	pelvis_rotation	pelvis_tx	pelvis_ty	pelvis_tz	hip_flexion_r	hip_adduction_r	hip_rotation_r	knee_angle_r	knee_angle_r_beta	ankle_angle_r	subtalar_angle_r	mtp_angle_r	hip_flexion_l	hip_adduction_l	hip_rotation_l	knee_angle_l	knee_angle_l_beta	ankle_angle_l	subtalar_angle_l	mtp_angle_l	lumbar_extension	lumbar_bending	lumbar_rotation	arm_flex_r	arm_add_r	arm_rot_r	elbow_flex_r	pro_sup_r	wrist_flex_r	wrist_dev_r	arm_flex_l	arm_add_l	arm_rot_l	elbow_flex_l	pro_sup_l	wrist_flex_l	wrist_dev_l
     56.41250000	     -5.47089130	     -5.12254640	      4.34290268	      0.80779005	      0.91520907	      0.42822820	      2.01179567	      1.43109962	    -13.13753146	     24.65849984	     24.65849984	     18.71186292	     -6.14250116	     -2.81880692	     30.38405160	     -6.31207023	     -2.20492697	     26.86901365	     26.86901365	      6.34621373	    -11.37524523	      2.59358374	     -7.38720725	      2.18405200	      3.68522070	     40.86755870	    -14.27695220	      0.58102900	    103.06728114	     44.59898024	      0.00000000	      0.00000000	     -2.23647089	     -9.57848267	     -7.21987055	     34.70844468	     46.11347674	      0.00000000	      0.00000000
     56.42542857	     -5.50667830	     -5.02739647	      3.91789809	      0.80808132	      0.91662562	      0.42650035	      3.23211063	      0.88519155	    -12.69568856	     27.53308543	     27.53308543	     17.64102759	     -7.54276337	     -3.56076641	     29.72170006	     -6.27559973	     -2.52777745	     26.68471767	     26.68471767	      6.81808793	    -11.44888965	      2.38801085	     -7.44392473	      1.95569766	      3.66444898	     39.48036616	    -13.92796150	      1.29843384	    102.29526685	     44.59972247	      0.00000000	      0.00000000	     -1.58018420	     -9.77937190	     -7.45425968	     34.63117960	     46.15102141	      0.00000000	      0.00000000
     56.43835714	     -5.41774299	     -4.91076609	      3.54424060	      0.80837011	      0.91816805	      0.42462043	      4.43061622	      0.29604366	    -12.36115603	     30.58845726	     30.58845726	     16.44202617	     -8.92745664	     -4.25279995	     28.90669090	     -6.20390784	     -2.91436459	     26.46919059	     26.46919059	      7.26767814	    -11.50661645	      2.17256466	     -7.58966599	      1.78417677	      3.59050410	     37.94804498	    -13.51871823	      1.99732686	    101.50354268	     44.59953031	      0.00000000	      0.00000000	     -0.84185705	     -9.97407597	     -7.61097927	     34.62845393	     46.18044119	      0.00000000	      0.00000000
     56.45128571	     -5.46665321	     -4.86763481	      3.15591376	      0.80843848	      0.91935585	      0.42279959	      5.82953206	     -0.11825423	    -11.80894030	     33.43403131	     33.43403131	     13.25259074	    -11.95134842	     -9.29898005	     28.16129248	     -6.14772122	     -3.15845064	     26.02575670	     26.02575670	      7.32041795	    -11.86250569	      1.16523582	     -7.53169346	      1.68972198	      3.01691526	     37.00125383	    -13.07997246	      3.61539097	     99.31013485	     44.65282520	      0.00000000	      0.00000000	      0.06722125	    -10.03132444	     -8.87059909	     33.40825974	     46.33334696	      0.00000000	      0.00000000
     56.46421429	     -5.43094374	     -4.71687743	      2.81172363	      0.80843754	      0.92049831	      0.42077254	      7.43465726	     -0.81998017	    -11.60574444	     36.99278898	     36.99278898	     11.70461810	    -13.40161129	     -9.61108302	     27.39285298	     -5.99050633	     -3.54029872	     25.73762630	     25.73762630	      7.72161013	    -11.89777024	      0.97905923	     -7.65327442	      1.50883647	      2.95475034	     35.24501412	    -12.86241987	      3.98202981	     98.56546538	     44.66250888	      0.00000000	      0.00000000	      0.78142902	    -10.25082527	     -9.00995285	     33.76314199	     46.35920452	      0.00000000	      0.00000000
     56.47714286	     -5.30249707	     -4.55815839	      2.51334040	      0.80841995	      0.92155759	      0.41859840	      8.99648784	     -1.53271358	    -11.42704641	     40.56798709	     40.56798709	      9.99401987	    -14.88711738	     -9.70863950	     26.57530360	     -5.79246224	     -3.85984226	     25.52333032	     25.52333032	      8.11711394	    -12.00166850	      0.77742347	     -7.89050907	      1.37521317	      2.80502979	     33.42720460	    -12.60241497	      4.40836824	     97.60352889	     44.67518343	      0.00000000	      0.00000000	      1.58298451	    -10.47248335	     -9.07484477	     34.03997771	     46.37752748	      0.00000000	      0.00000000
     56.49007143	     -5.29310454	     -4.43087750	      2.24655334	      0.80820103	      0.92231180	      0.41630009	     10.78525583	     -2.17493482	    -11.16026948	     44.15620898	     44.15620898	      8.03058803	    -16.58731724	     -9.48156931	     25.91289504	     -5.56123371	     -4.04040961	     25.27927913	     25.27927913	      8.31072538	    -12.29460659	      0.54600372	     -7.93353497	      1.36326473	      2.68548660	     31.65604591	    -12.51532617	      4.70633198	     96.02275931	     44.71454241	      0.00000000	      0.00000000	      2.38972994	    -10.65961404	     -9.12179718	     34.25091999	     46.39108238	      0.00000000	      0.00000000
     56.50300000	     -5.17008683	     -4.22327951	      2.01680389	      0.80796697	      0.92299203	      0.41385095	     12.47170554	     -2.98404091	    -11.06038923	     47.70704487	     47.70704487	      6.33683725	    -17.66647080	     -8.66234475	     25.17847282	     -5.23182395	     -4.19666341	     25.12696567	     25.12696567	      8.52653860	    -12.59143096	      0.29190173	     -8.12257055	      1.29003805	      2.49818335	     29.78528271	    -12.34583598	      4.97199477	     94.32137347	     44.75795071	      0.00000000	      0.00000000	      3.25088204	    -10.85603689	     -9.13488808	     34.51519672	     46.40130256	      0.00000000	      0.00000000
     56.51592857	     -5.04889041	     -4.05755028	      1.78567328	      0.80770590	      0.92354919	      0.41141621	     14.29823981	     -3.64138984	    -10.74761654	     51.38398450	     51.38398450	      5.93971117	    -18.07713151	     -3.96338326	     24.43023240	     -4.89707888	     -4.21370151	     24.90891737	     24.90891737	      8.54694125	    -13.25259481	     -0.27037881	     -8.25109088	      1.31606685	      2.04330187	     28.25503566	    -11.76069495	      4.90194157	     91.28243295	     44.86888429	      0.00000000	      0.00000000	      3.96801159	    -11.15828825	     -9.06882016	     34.70293230	     46.38680777	      0.00000000	      0.00000000
     56.52885714	     -4.94692603	     -3.87737272	      1.55008279	      0.80739456	      0.92395639	      0.40899639	     16.12617929	     -4.29406793	    -10.43520024	     54.79549425	     54.79549425	      5.63800961	    -18.39498615	      0.60889519	     23.77585612	     -4.58575810	     -4.35177417	     24.82569548	     24.82569548	      8.78648269	    -13.58273731	     -0.50486098	     -8.40757081	      1.34662637	      1.88318671	     26.29646895	    -11.72033641	      4.95933697	     89.15612879	     44.94427370	      0.00000000	      0.00000000	      4.68044310	    -11.36112239	     -9.06898142	     35.42350982	     46.38142515	      0.00000000	      0.00000000
     56.54178571	     -4.76130979	     -3.66175924	      1.35616127	      0.80719006	      0.92439149	      0.40643575	     17.62367925	     -5.07927108	    -10.34566189	     57.56112193	     57.56112193	      4.31479718	    -18.82383966	      1.27647854	     23.06529115	     -4.24009127	     -4.54561808	     24.82617809	     24.82617809	      9.15553641	    -13.70155626	     -0.61860854	     -8.66856819	      1.39908313	      1.80813706	     24.04894947	    -11.89576651	      5.19000615	     87.61840981	     44.97835041	      0.00000000	      0.00000000	      5.56740332	    -11.56243045	     -9.11640923	     35.94884526	     46.40004768	      0.00000000	      0.00000000
